<?xml version="1.0" encoding="UTF-8" standalone="no"?>
<!DOCTYPE svg PUBLIC "-//W3C//DTD SVG 1.1//EN" "http://www.w3.org/Graphics/SVG/1.1/DTD/svg11.dtd">
<svg width="100%" height="100%" viewBox="0 0 1867 1867" version="1.1" xmlns="http://www.w3.org/2000/svg" xmlns:xlink="http://www.w3.org/1999/xlink" xml:space="preserve" xmlns:serif="http://www.serif.com/" style="fill-rule:evenodd;clip-rule:evenodd;stroke-linejoin:round;stroke-miterlimit:2;">
    <g id="Livello-1" serif:id="Livello 1">
        <g id="g84" transform="matrix(1,0,0,1,0.000062,-0.000009)">
            <g id="path1" transform="matrix(1.333333,0,0,-1.333333,1132.9973,966.38853)">
                <path d="M0,0C113.773,0.093 227.563,1.064 341.314,0.118C342.241,-297.888 72.439,-531.576 -222.448,-486.052C-436.376,-458.237 -612.523,-277.521 -638.569,-64.128C-640.722,-43.826 -642.184,-23.343 -642.206,-2.842C-642.21,1.02 -639.775,0.761 -637.153,0.758C-525.179,0.454 -413.175,1.09 -301.213,0.31C-293.87,-0.106 -293.869,-0.106 -292.889,-7.62C-290.447,-44.181 -277.386,-76.284 -250.125,-101.396C-175.042,-170.561 -16.966,-130 -8.33,-11.713C-7.746,-6.247 -9.036,0.543 0,0" style="fill:rgb(46,42,43);fill-rule:nonzero;"/>
            </g>
            <g id="path3" transform="matrix(1.333333,0,0,-1.333333,1852.3495,949.87587)">
                <path d="M0,0C-0.542,-89.362 -17.129,-178.934 -52.013,-261.359C-54.107,-265.887 -57.174,-268.742 -61.827,-270.381C-103.396,-285.025 -144.935,-299.756 -186.494,-314.429C-197.15,-318.873 -223.787,-327.608 -218.046,-306.212C-209.593,-285.642 -197.539,-266.502 -188.329,-246.225C-169.298,-207.108 -157.247,-165.043 -147.411,-122.789C-130.5,-42.463 -132.344,41.782 -153.014,121.14C-178.286,228.56 -239.886,326.662 -321.371,400.584C-695.785,734.268 -1284.542,436.845 -1242.06,-61.478C-1237.587,-111.828 -1227.14,-161.409 -1208.859,-208.596C-1196.201,-241.971 -1179.328,-273.211 -1162.375,-304.506C-1156.634,-313.424 -1165.691,-324.164 -1175.661,-320.711C-1223.405,-306.606 -1269.074,-286.408 -1316.523,-271.405C-1326.348,-268.366 -1329.715,-260.3 -1332.428,-252.255C-1337.64,-236.801 -1343.608,-221.614 -1348.289,-205.949C-1382.086,-100.262 -1388.367,14.347 -1369.126,123.625C-1368.056,131.603 -1364.025,136.606 -1356.604,139.441C-1327.251,150.899 -1298.392,163.777 -1268.962,174.882C-1263.495,175.805 -1260.705,179.089 -1259.101,184.615C-1252.437,207.576 -1241.887,228.995 -1232.291,250.811C-1197.185,326.291 -1143.457,392.052 -1080.661,446.226C-793.817,697.118 -326.184,605.306 -155.542,264.51C-141.83,237.955 -130.355,210.21 -120.296,182.045C-119.192,178.488 -116.567,176.763 -112.973,175.332C-85.752,164.496 -58.666,153.322 -31.535,142.262C-24,138.733 -13.231,137.535 -11.759,127.755C-3.375,85.705 -0.719,42.8 0,0" style="fill:rgb(46,42,43);fill-rule:nonzero;"/>
            </g>
            <g id="path5" transform="matrix(1.333333,0,0,-1.333333,1132.9973,966.38853)">
                <path d="M0,0C-9.036,0.543 -7.746,-6.247 -8.329,-11.717C-12.831,-62.448 -44.837,-108.583 -91.459,-129.672C-178.719,-171.753 -290.744,-104.853 -292.887,-7.617C-293.869,-0.106 -293.87,-0.106 -301.213,0.31C-279.73,0.262 -258.271,0.213 -236.807,0.165C-233.515,-113.237 -69.678,-114.322 -64.5,-1.48C-65.686,0.004 -67.472,-0.2 -69.061,0.167C-46.041,0.111 -23.02,0.056 0,0" style="fill:rgb(101,48,143);fill-rule:nonzero;"/>
            </g>
            <g id="path7" transform="matrix(1.333333,0,0,-1.333333,1040.9159,966.1664)">
                <path d="M0,0C1.589,-0.366 3.376,-0.163 4.561,-1.647C-0.658,-114.562 -164.481,-113.334 -167.746,-0.001C-166.533,0.025 -165.316,0.052 -164.1,0.08C-164.101,0.081 -164.048,-0.109 -164.048,-0.109L-164.035,0.093C-109.363,0.374 -54.662,0.562 0,0" style="fill:rgb(46,42,43);fill-rule:nonzero;"/>
            </g>
            <g id="path9" transform="matrix(1.333333,0,0,-1.333333,741.49973,448.51707)">
                <path d="M0,0C1.046,-114.167 0.06,-228.778 0.544,-343.092C0.753,-351.798 0.754,-351.781 -8.242,-351.74C-13.01,-350.518 -30.5,-354.953 -29.758,-348.116C-29.298,-235.041 -29.604,-121.956 -29.427,-8.878C-29.423,-0.096 -29.48,-0.067 -20.945,-0.009C-14.131,0.037 -7.316,0 0,0" style="fill:rgb(233,193,34);fill-rule:nonzero;"/>
            </g>
            <g id="path11" transform="matrix(1.333333,0,0,-1.333333,943.6852,917.21693)">
                <path d="M0,0C-4.941,1.091 -24.83,-3.566 -23.19,3.772C-22.868,108.19 -23.117,212.609 -22.867,317.027C-22.66,353.475 -22.044,389.925 -23.137,426.367C-23.233,430.387 -22.044,432.159 -17.787,432.009C-11.506,431.787 -5.209,432.01 1.082,432.045C0.128,288.336 2.392,143.649 0,0" style="fill:rgb(233,193,34);fill-rule:nonzero;"/>
            </g>
            <g id="path13" transform="matrix(1.333333,0,0,-1.333333,1162.322,449.1304)">
                <path d="M0,0C-0.053,-112.848 -0.141,-225.683 -0.156,-338.529C-0.158,-351.479 0,-351.469 -13.015,-351.395C-18.687,-350.187 -30.622,-355.266 -29.57,-345.84C-29.115,-232.69 -29.437,-119.523 -29.404,-6.369C-29.409,-1.342 -28.11,0.406 -22.961,0.109C-15.542,-0.318 -8.081,0 0,0" style="fill:rgb(233,193,34);fill-rule:nonzero;"/>
            </g>
            <g id="path15" transform="matrix(1.333333,0,0,-1.333333,1021.6708,918.59093)">
                <path d="M0,0C-9.559,1.153 -19.027,0.629 -28.38,0.886C-31.519,82.482 -28.217,165.622 -29.326,247.737C-29.325,252.207 -28.204,253.993 -23.446,253.806C-16.807,253.545 -10.136,253.97 -3.483,254.22C-0.006,254.351 1.441,253.284 1.436,249.391C0.008,166.516 3.895,82.132 0,0" style="fill:rgb(233,193,34);fill-rule:nonzero;"/>
            </g>
            <g id="path17" transform="matrix(1.333333,0,0,-1.333333,881.84453,917.79027)">
                <path d="M0,0C-7.764,0.073 -15.072,0.442 -22.397,-0.367C-29.316,-1.132 -30.571,0.084 -30.378,7.21C-28.756,67.338 -29.849,127.474 -29.896,187.605C-29.912,207.415 -30.237,227.238 -30.532,247.052C-30.598,251.459 -29.392,253.503 -24.767,253.458C-16.663,253.378 -8.559,252.944 0,253.979L0,0Z" style="fill:rgb(233,193,34);fill-rule:nonzero;"/>
            </g>
            <g id="path19" transform="matrix(1.333333,0,0,-1.333333,463.03107,602.9496)">
                <path d="M0,0C0.496,-76.871 -0.895,-153.665 0.346,-230.511C0.407,-234.936 -0.758,-236.327 -5.208,-236.114C-12.188,-235.778 -19.208,-235.909 -26.194,-236.219C-29.776,-236.378 -30.933,-235.077 -30.872,-231.675C-30.712,-222.847 -30.704,-214.015 -30.697,-205.184C-30.645,-139.365 -30.602,-73.547 -30.575,-7.728C-30.572,-0.051 -30.624,-0.032 -22.917,-0.005C-15.471,0.02 -8.024,0 0,0" style="fill:rgb(77,192,57);fill-rule:nonzero;"/>
            </g>
            <g id="path21" transform="matrix(1.333333,0,0,-1.333333,1441.8,602.88587)">
                <path d="M0,0L0,-236.168L-29.248,-236.168C-30.422,-158.586 -31.083,-77.489 -28.799,-0.809C-26.009,1.313 -20.504,-0.072 -16.203,-0.016C-10.925,0.052 -5.646,0 0,0" style="fill:rgb(244,1,41);fill-rule:nonzero;"/>
            </g>
            <g id="path23" transform="matrix(1.333333,0,0,-1.333333,651.8832,595.60853)">
                <path d="M0,0C3.1,0.339 6.38,-0.715 9.252,-0.085C10.575,0.387 11.855,0.123 13.122,-0.308C10.9,-40.714 10.191,-81.327 11.787,-121.758C12.341,-160.95 10.2,-200.23 13.763,-239.254C6.442,-240.531 -0.168,-239.333 -6.755,-239.6C-13.327,-239.866 -13.333,-239.666 -13.333,-233.236C-11.5,-155.774 -16.88,-76.641 -11.438,0.04C-7.532,0.364 -3.853,-1.34 0,0" style="fill:rgb(170,211,8);fill-rule:nonzero;"/>
            </g>
            <g id="path25" transform="matrix(1.333333,0,0,-1.333333,1219.6657,917.2472)">
                <path d="M0,0C-4.352,0.186 -21.443,-3.219 -20.35,3.505C-20.339,80.486 -20.27,157.467 -20.233,234.447C-20.229,240.926 -20.094,241.131 -13.481,241.157C-8.829,241.175 -4.175,240.943 0.481,240.823C3.006,161.344 2.626,79.563 0,0" style="fill:rgb(233,193,34);fill-rule:nonzero;"/>
            </g>
            <g id="path27" transform="matrix(1.333333,0,0,-1.333333,391.7116,698.71187)">
                <path d="M0,0L0,-164.766C-8.896,-164.805 -17.825,-163.917 -26.728,-164.696C-28.173,-164.823 -28.858,-163.893 -29.001,-162.593C-29.526,-110.496 -28.781,-58.353 -28.995,-6.242C-28.996,-1.673 -27.931,0.422 -22.821,0.112C-15.542,-0.329 -8.217,0 0,0" style="fill:rgb(77,192,57);fill-rule:nonzero;"/>
            </g>
            <g id="path29" transform="matrix(1.333333,0,0,-1.333333,812.35107,715.12253)">
                <path d="M0,0L0,-151.696C-9.005,-151.696 -18.081,-151.672 -27.158,-151.712C-29.538,-151.723 -30.407,-150.526 -30.397,-148.315C-30.462,-101.186 -29.893,-54.05 -29.718,-6.918C-29.679,-0.401 -29.483,-0.117 -23.097,-0.025C-15.619,0.082 -8.139,0 0,0" style="fill:rgb(233,193,34);fill-rule:nonzero;"/>
            </g>
            <g id="path31" transform="matrix(1.333333,0,0,-1.333333,1509.8495,697.8984)">
                <path d="M0,0C3.517,-0.201 0.533,-3.698 1.763,-5.592C1.084,-58.604 2.61,-112.163 1.196,-164.902L1.243,-164.851C0.146,-165.274 -0.88,-166.401 -2.134,-165.193C-8.04,-164.061 -13.797,-162.062 -20.018,-162.794C-22.555,-163.092 -24.771,-162.055 -25.594,-158.999C-26.225,-156.654 -26.363,-154.268 -25.87,-152.086C-22.962,-139.221 -24.633,-126.064 -23.406,-113.045C-20.3,-76.697 -24.482,-39.76 -27.319,-3.526C-25.32,-2.643 -25.569,-4.438 -24.326,-4.914C-25.432,1.826 -5.674,-3.696 0,0" style="fill:rgb(244,1,41);fill-rule:nonzero;"/>
            </g>
            <g id="path33" transform="matrix(1.333333,0,0,-1.333333,1295.0529,917.706)">
                <path d="M0,0C-6.984,0.008 -13.969,0.08 -20.952,-0.009C-23.737,-0.044 -24.844,1.105 -24.781,3.852C-24.711,52.82 -24.578,101.795 -24.592,150.766C-24.594,155.086 -23.646,157.397 -18.734,156.706C-12.269,155.797 -5.765,156.291 0.692,157.024C4.344,157.438 6.256,156.508 5.196,152.45C3.237,159.115 -0.863,154.769 -4.75,154.578C-2.517,150.691 -2.758,146.858 -2.76,143.054C-3.849,98.798 -0.706,53.847 -3.999,9.928C-5.634,6.524 -3.334,1.483 0,0" style="fill:rgb(233,193,34);fill-rule:nonzero;"/>
            </g>
            <g id="path35" transform="matrix(1.333333,0,0,-1.333333,1081.3021,917.1876)">
                <path d="M0,0C-27.465,-1.138 -20.833,-3.025 -21.41,22.145C-21.293,63.727 -21.489,105.313 -21.196,146.893C-22.597,155.304 -3.617,150.02 1.965,151.169C-1.653,149.318 -3.481,145.658 -2.531,142.399C2.812,95.314 -1.475,47.406 0,0" style="fill:rgb(233,193,34);fill-rule:nonzero;"/>
            </g>
            <g id="path37" transform="matrix(1.333333,0,0,-1.333333,1583.3597,809.726)">
                <path d="M0,0C0.005,-26.334 -0.047,-50.811 0.103,-76.661C0.117,-79.185 0.03,-81.193 -3.508,-81.119C-12.304,-80.935 -21.107,-81.059 -29.721,-81.059C-32.556,-56.488 -29.567,-30.945 -30.662,-5.992C-30.693,-1.182 -29.373,0.397 -24.44,0.12C-16.522,-0.326 -8.562,0 0,0" style="fill:rgb(244,1,41);fill-rule:nonzero;"/>
            </g>
            <g id="path39" transform="matrix(1.333333,0,0,-1.333333,320.73413,809.8808)">
                <path d="M0,0C2.476,-24.667 0.21,-50.444 1.26,-75.491C1.303,-79.506 0.376,-81.136 -3.982,-80.891C-10.429,-79.059 -31.187,-85.157 -29.402,-75.156C-28.536,-52.338 -28.718,-29.509 -29.229,-6.69C-29.341,-1.653 -27.736,0.224 -22.741,0.064C-15.121,-0.18 -7.488,0 0,0" style="fill:rgb(77,192,57);fill-rule:nonzero;"/>
            </g>
            <g id="path41" transform="matrix(1.333333,0,0,-1.333333,943.6852,917.21693)">
                <path d="M0,0C2.392,143.65 0.128,288.335 1.082,432.045C2.676,432.186 4.271,432.327 5.831,432.466C6.24,288.892 6.171,144.225 6.042,0.312C3.906,-0.887 1.932,0.008 0,0" style="fill:rgb(233,193,34);fill-rule:nonzero;"/>
            </g>
            <g id="path43" transform="matrix(1.333333,0,0,-1.333333,1219.6657,917.2472)">
                <path d="M0,0C2.626,79.563 3.006,161.344 0.481,240.823C1.855,241.042 3.232,241.262 4.608,241.481C5.116,240.993 5.554,241.088 5.938,241.64C8.691,242.092 9.746,241.137 9.742,238.15C9.638,158.688 9.619,79.242 9.59,-0.221C6.125,-1.175 3.065,-0.264 0,0" style="fill:rgb(233,193,34);fill-rule:nonzero;"/>
            </g>
            <g id="path45" transform="matrix(1.333333,0,0,-1.333333,500.60933,810.05147)">
                <path d="M0,0C6.507,0.816 13.027,0.727 19.548,0.283C23.942,-2.83 21.618,-7.218 20.662,-10.442C16.487,-24.52 17.788,-38.872 18.947,-52.936C18.266,-57.162 24.613,-80.637 18.283,-78.766C-12.031,-79.35 -2.794,-80.784 -3.419,-51.069C-2.761,-41.118 -2.872,-31.227 -3.394,-21.272C-3.772,-14.07 -6.617,-6.191 0,0" style="fill:rgb(170,211,8);fill-rule:nonzero;"/>
            </g>
            <g id="path47" transform="matrix(1.333333,0,0,-1.333333,1360.9408,917.4648)">
                <path d="M0,0C-5.878,1.204 -22.982,-4.19 -21.455,5.028C-21.288,19.491 -21.292,33.955 -21.305,48.418C-19.358,83.129 -31.086,81.903 0.165,80.647C-1.481,54.332 0.356,26.732 0,0" style="fill:rgb(255,204,51);fill-rule:nonzero;"/>
            </g>
            <g id="path49" transform="matrix(1.333333,0,0,-1.333333,636.632,595.5548)">
                <path d="M0,0C-5.441,-76.688 -0.062,-155.808 -1.898,-233.276C-1.895,-239.706 -1.888,-239.906 4.683,-239.64C11.27,-239.374 17.88,-240.572 25.201,-239.294C21.638,-200.272 23.78,-160.989 23.226,-121.798C21.629,-81.366 22.338,-40.755 24.561,-0.348C28.078,0.542 26.905,-2.172 26.917,-3.627C26.539,-83.063 27.717,-162.506 26.888,-241.919C17.029,-241.494 7.326,-242.921 -2.376,-241.403C-5.753,-163.374 -2.364,-83.476 -3.423,-4.828C-3.418,-2.632 -4.387,0.71 0,0" style="fill:rgb(170,211,8);fill-rule:nonzero;"/>
            </g>
            <g id="path51" transform="matrix(1.333333,0,0,-1.333333,597.86813,914.84)">
                <path d="M0,0C-3.447,46.437 -4.6,91.95 -0.604,138.141C3.103,160.01 -1.367,151.385 -25.897,153.025C-22.964,102.809 -25.781,52.267 -24.876,1.863C-24.97,-0.215 -24.002,-1.522 -21.936,-1.099C-14.756,0.372 -7.425,-0.542 0,0M3.108,154.551C3.269,103.442 2.638,53.001 4.011,1.991C4.102,-1.603 3.475,-2.861 -0.717,-2.501C-6.973,-1.965 -13.334,-2.719 -19.652,-2.83C-26.562,-2.951 -26.602,-2.904 -26.594,3.921C-26.579,52.389 -26.194,100.861 -26.708,149.327C-26.754,153.166 -25.665,154.731 -21.651,154.618C-13.699,154.393 -5.737,154.551 3.108,154.551" style="fill:rgb(170,211,8);fill-rule:nonzero;"/>
            </g>
            <g id="path53" transform="matrix(1.333333,0,0,-1.333333,1295.0529,917.706)">
                <path d="M0,0C-3.334,1.483 -5.634,6.524 -4.001,9.929C-0.706,53.848 -3.849,98.796 -2.758,143.054C-2.758,146.857 -2.517,150.691 -4.75,154.578C-0.863,154.769 3.237,159.115 5.196,152.45C4.998,101.811 5.91,51.097 5.127,0.485C3.431,0.389 1.683,-0.229 0,0" style="fill:rgb(233,193,34);fill-rule:nonzero;"/>
            </g>
            <g id="path55" transform="matrix(1.333333,0,0,-1.333333,1081.3021,917.1876)">
                <path d="M0,0C-1.475,47.406 2.812,95.313 -2.528,142.4C-5.377,148.931 8.312,156.93 7.683,146.02C7.617,98.886 7.793,51.751 7.909,4.617C7.922,-0.774 7.942,-0.774 0,0" style="fill:rgb(233,193,94);fill-rule:nonzero;"/>
            </g>
            <g id="path57" transform="matrix(1.333333,0,0,-1.333333,1509.8495,697.8984)">
                <path d="M0,0C-5.743,-3.713 -25.38,1.847 -24.326,-4.914C-25.569,-4.438 -25.32,-2.643 -27.319,-3.526C-24.482,-39.759 -20.3,-76.698 -23.405,-113.045C-24.633,-126.064 -22.962,-139.221 -25.87,-152.086C-26.363,-154.268 -26.225,-156.654 -25.594,-158.999C-24.771,-162.055 -22.555,-163.092 -20.018,-162.794C-13.797,-162.062 -8.04,-164.061 -2.134,-165.193C-9.626,-165.277 -17.114,-165.28 -24.596,-165.502C-31.054,-165.698 -27.797,-157.206 -28.569,-153.205C-28.579,-103.744 -28.551,-54.284 -28.669,-4.824C-28.678,-1.169 -27.773,0.186 -23.94,0.06C-15.968,-0.2 -7.981,-0.007 0,0" style="fill:rgb(255,0,7);fill-rule:nonzero;"/>
            </g>
            <g id="path59" transform="matrix(1.333333,0,0,-1.333333,1360.9408,917.4648)">
                <path d="M0,0C0.356,26.728 -1.481,54.335 0.165,80.647C3.885,80.914 8.974,82.591 8.425,76.888C8.05,51.259 8.328,25.629 8.434,0.021C5.491,-1.176 2.732,0.034 0,0" style="fill:rgb(255,204,51);fill-rule:nonzero;"/>
            </g>
            <g id="path61" transform="matrix(1.333333,0,0,-1.333333,500.60933,810.05147)">
                <path d="M0,0C-6.617,-6.191 -3.772,-14.07 -3.394,-21.272C-2.872,-31.227 -2.761,-41.118 -3.418,-51.07C-2.786,-80.768 -12.047,-79.351 18.282,-78.766C24.617,-80.681 18.258,-57.074 18.949,-52.936C17.788,-38.872 16.487,-24.52 20.662,-10.442C21.618,-7.218 23.942,-2.83 19.548,0.283C26.693,3.428 22.099,-17.858 23.285,-22.026C23.512,-39.974 23.77,-57.923 24.196,-75.868C24.279,-79.4 23.535,-80.978 19.582,-80.82C12.609,-80.54 5.61,-80.635 -1.367,-80.889C-5.379,-81.035 -6.698,-79.295 -6.562,-75.572C-5.686,-51.638 -5.831,-27.695 -5.979,-3.752C-6.009,0.953 -3.281,0.806 0,0" style="fill:rgb(170,211,8);fill-rule:nonzero;"/>
            </g>
            <g id="path63" transform="matrix(1.333333,0,0,-1.333333,651.8832,595.60853)">
                <path d="M0,0C-2.655,-0.607 -5.306,-0.95 -7.936,0.105C-5.268,1.617 -2.627,1.342 0,0" style="fill:rgb(233,193,34);fill-rule:nonzero;"/>
            </g>
            <g id="path65" transform="matrix(1.333333,0,0,-1.333333,1295.9005,917.84493)">
                <path d="M0,0C1.498,0.199 2.996,0.398 4.491,0.589C3.209,-1.284 1.622,-0.775 0,0" style="fill:rgb(233,193,34);fill-rule:nonzero;"/>
            </g>
            <g id="path67" transform="matrix(1.333333,0,0,-1.333333,1512.2001,705.35453)">
                <path d="M0,0C-0.453,1.128 -0.56,2.245 0.099,3.333C0.641,2.2 0.62,1.091 0,0" style="fill:rgb(233,193,34);fill-rule:nonzero;"/>
            </g>
            <g id="path69" transform="matrix(1.333333,0,0,-1.333333,664.21907,595.72067)">
                <path d="M0,0C-0.847,-0.595 -1.695,-0.397 -2.537,0.002C-1.687,0.584 -0.843,0.662 0,0" style="fill:rgb(233,193,34);fill-rule:nonzero;"/>
            </g>
            <g id="path71" transform="matrix(1.333333,0,0,-1.333333,822.20293,966.042)">
                <path d="M0,0L-0.013,-0.202C-0.01,-0.152 -0.125,0.022 0,0" style="fill:rgb(244,1,41);fill-rule:nonzero;"/>
            </g>
            <g id="path73" transform="matrix(1.333333,0,0,-1.333333,1511.4439,917.76787)">
                <path d="M0,0L0.362,-0.065C0.309,-0.063 0.022,0.118 0,0" style="fill:rgb(233,193,34);fill-rule:nonzero;"/>
            </g>
            <g id="path75" transform="matrix(1.333333,0,0,-1.333333,951.84573,352.2676)">
                <path d="M0,0C-0.012,0.324 -0.023,0.647 -0.035,0.969C0.109,0.591 0.529,0.255 0,0" style="fill:rgb(233,193,34);fill-rule:nonzero;"/>
            </g>
            <g id="path77" transform="matrix(1.333333,0,0,-1.333333,1227.5828,595.06093)">
                <path d="M0,0C-0.383,-0.552 -0.822,-0.647 -1.329,-0.159C-0.886,-0.105 -0.443,-0.052 0,0" style="fill:rgb(233,193,34);fill-rule:nonzero;"/>
            </g>
            <g id="path79" transform="matrix(1.333333,0,0,-1.333333,597.86813,914.84)">
                <path d="M0,0C-7.425,-0.542 -14.756,0.372 -21.936,-1.099C-24.002,-1.522 -24.97,-0.215 -24.878,1.863C-25.782,52.269 -22.964,102.806 -25.897,153.025C-1.349,151.386 3.097,160.004 -0.603,138.141C-4.6,91.941 -3.447,46.448 0,0" style="fill:rgb(170,211,8);fill-rule:nonzero;"/>
            </g>
            <g id="path81" transform="matrix(1.333333,0,0,-1.333333,621.33267,1402.8941)">
                <path d="M0,0C38.198,52.037 76.396,104.074 114.594,156.111C118.639,153.302 120.706,151.965 124.917,149.429C90.024,95.253 55.131,41.077 20.238,-13.099C6.186,-29.948 -26.394,-13.168 -40.793,-6.754C-82.324,13.672 -113.637,48.023 -137.827,86.801C-178.817,158.394 -195.955,236.564 -197.059,318.65L-191.169,318.65C-190.08,237.685 -173.177,160.585 -132.747,89.97C-112.192,57.115 -86.525,27.613 -52.207,8.655C-39.922,2.521 -12.785,-13.627 0,0ZM85.259,-44.358C109.534,14.923 133.809,74.204 158.083,133.485C162.691,131.769 165.023,130.979 169.729,129.536C149.183,68.991 128.637,8.447 108.09,-52.098C94.863,-83.908 34.463,-67.705 11.813,-62.056C-61.038,-41.096 -118.783,10.621 -158.15,74.126C-201.413,149.568 -219.508,232.117 -220.62,318.65L-214.729,318.65C-213.632,233.239 -195.772,151.759 -153.069,77.295C-117.857,20.545 -67.214,-27.579 -2.744,-48.783C18.241,-55.029 71.652,-72.687 85.259,-44.358M-71.554,65.793C-21.671,107.086 28.212,148.378 78.095,189.671C81.305,185.768 82.972,183.885 86.416,180.256C39.197,135.949 -8.023,91.642 -55.242,47.335C-64.777,43.791 -73.117,51.459 -80.66,56.411C-95.662,67.844 -108.091,83.199 -117.505,99.476C-156.233,167.24 -172.402,240.983 -173.498,318.65L-167.608,318.65C-166.528,242.106 -150.593,169.429 -112.424,102.645C-106.065,91.845 -98.245,81.746 -88.67,73.603C-79.949,65.988 -74.121,63.668 -71.554,65.793M62.951,-35.278C50.166,-59.874 1.799,-41.813 -15.306,-35.745C-71.588,-15.779 -116.408,29.646 -147.989,80.464C-190.131,153.95 -207.756,234.36 -208.839,318.65L-202.949,318.65C-201.88,235.481 -184.49,156.141 -142.908,83.632C-114.939,38.686 -77.596,-0.018 -28.551,-21.652C-13.669,-27.34 28.308,-45.776 41.25,-24.858C72.712,31.238 104.173,87.335 135.635,143.431C139.995,141.169 142.212,140.106 146.705,138.116C118.787,80.318 90.869,22.52 62.951,-35.278M-19.382,14.439C-31.281,4.111 -51.244,17.522 -61.991,23.312C-89.79,40.299 -110.55,65.893 -127.666,93.139C-167.536,162.775 -184.205,238.808 -185.279,318.65L-179.388,318.65C-178.277,239.861 -161.874,165.051 -122.586,96.308C-108.801,74.514 -93.096,54.541 -71.763,39.64C-63.605,34.809 -47.988,22.601 -37.823,30.217C6.551,77.32 50.926,124.422 95.301,171.524C98.962,168.168 100.846,166.559 104.708,163.476C63.344,113.797 21.981,64.118 -19.382,14.439" style="fill:white;fill-rule:nonzero;"/>
            </g>
            <g id="path83" transform="matrix(1.333333,0,0,-1.333333,920.398,1242.5932)">
                <path d="M0,0C-4.126,-85.209 -8.252,-170.419 -12.378,-255.628C-21.774,-255.251 -31.215,-254.583 -40.571,-253.63C-31.154,-168.796 -21.738,-83.961 -12.321,0.873C-7.405,0.387 -4.938,0.213 0,0M73.131,9.111C100.41,-72.185 127.689,-153.482 154.968,-234.779C146.006,-237.524 136.898,-239.996 127.779,-242.163C105.603,-159.481 83.426,-76.798 61.25,5.884C66.041,7.039 68.42,7.684 73.131,9.111M49.189,3.341C66.186,-80.434 83.183,-164.209 100.18,-247.984C90.942,-249.688 81.594,-251.113 72.268,-252.24C60.509,-167.667 48.75,-83.093 36.991,1.481C41.892,2.088 44.334,2.46 49.189,3.341M24.698,0.304C31.179,-84.775 37.659,-169.854 44.139,-254.933C34.756,-255.597 25.297,-255.975 15.892,-256.063C14.712,-170.772 13.533,-85.481 12.354,-0.19C17.296,-0.129 19.768,-0.03 24.698,0.304M322.231,129.216C333.077,148.513 351.885,198.287 378.399,198.425C425.603,198.67 422.017,86.203 420.177,59.491C410.001,-43.324 350.111,-130.203 264.338,-185.539C237.814,-201.491 210.536,-214.725 181.648,-225.831C149.362,-146.213 117.076,-66.596 84.791,13.022C97.387,17.661 109.524,23.545 120.927,30.63C157.821,54.396 190.297,83.216 218.742,116.639C235.202,136.404 259.003,178.791 287.778,177.011C309.044,175.696 317.312,146.402 322.231,129.216M114.157,-19.916C115.184,-22.061 115.697,-23.133 116.724,-25.278C127.344,-20.307 137.224,-15.113 147.335,-9.176C165.23,1.972 183.043,13.347 201.821,22.976C212.13,27.939 227.906,37.359 237.975,29.939C249.447,21.486 241.214,2.171 237.015,-9.149C225.699,-32.569 206.3,-51.419 184.38,-65.015C171.706,-72.556 158.927,-79.27 145.536,-85.448C146.563,-87.593 147.076,-88.665 148.103,-90.81C161.747,-84.515 174.768,-77.674 187.681,-69.991C213.563,-52.734 237.315,-30.762 249.181,-1.296C253.803,12.437 261.667,36.144 247.995,44.966C236.134,52.62 217.814,41.052 206.181,34.551C185.109,22.777 164.694,8.784 144.034,-4.201C134.165,-9.995 124.522,-15.065 114.157,-19.916M119.149,-30.342L143.111,-80.384C156.263,-74.317 168.814,-67.722 181.262,-60.316C198.687,-48.494 214.593,-35.028 224.399,-15.96C228.258,-6.949 235.837,8.56 227.051,15.871C219.356,22.274 204.55,15.147 196.578,11.808C180.727,5.169 165.431,-4.665 150.453,-13.876C140.43,-20.106 129.956,-25.602 119.149,-30.342M285.764,155.27C258.023,158.259 234.896,121.993 218.762,104.493C190.413,74.817 159.261,47.234 124.228,25.654C116.206,20.584 107.471,15.999 98.753,12.254C99.78,10.109 100.293,9.037 101.32,6.892C110.29,10.745 119.276,15.462 127.529,20.678C160.153,41.567 189.989,65.805 218.157,92.363C233.273,107.081 258.568,140.376 282.428,134.488C304.029,129.157 306.681,94.229 308.561,76.213C322.55,94.552 348.313,143.593 374.698,139.781C413.243,134.211 402.104,47.651 397.99,22.246C382.058,-61.601 328.373,-129.879 257.736,-175.587C239.841,-186.383 221.61,-195.956 202.588,-204.596C203.615,-206.741 204.128,-207.813 205.155,-209.958C224.431,-201.202 242.903,-191.502 261.037,-180.563C339.559,-129.867 396.732,-51.927 410.01,41.841C412.828,67.501 420.067,167.461 377.562,170.099C350.344,171.789 329.091,122.422 316.551,102.573C313.388,120.838 308.58,151.229 285.764,155.27ZM277.829,114.665C255.386,121.026 230.951,92.923 216.631,80.436C189.405,56.98 161.128,35.058 130.83,15.702C122.346,10.341 113.108,5.491 103.888,1.53C104.914,-0.614 105.428,-1.687 106.455,-3.831C115.927,0.237 125.416,5.219 134.131,10.727C162.417,28.438 188.813,48.805 215.212,69.166C228.891,79.924 252.871,103.538 272.026,95.802C285.149,90.502 286.717,74.336 288.407,61.787C289.26,48.066 287.199,34.242 282.639,21.285C298.227,37.4 335.985,95.517 364.402,87.631C395.645,75.039 380.049,14.167 374.706,-7.903C356.058,-74.983 308.577,-128.371 251.134,-165.636C233.715,-176.144 215.97,-185.462 197.454,-193.873C198.481,-196.017 198.994,-197.09 200.021,-199.234C218.79,-190.709 236.778,-181.263 254.435,-170.612C318.471,-129.124 368.777,-68.618 386.474,6.762C391.005,29.174 406.471,104.469 370.485,113.852C342.25,118.567 311.701,65.362 297.077,48.209C298.5,66.82 302.137,106.431 277.829,114.666L277.829,114.665ZM265.08,77.897C247.234,85.607 226.023,66.541 212.743,57.215C187.74,39.904 163.236,21.879 137.432,5.751C128.486,0.097 118.745,-5.016 109.022,-9.193C110.049,-11.338 110.563,-12.41 111.59,-14.555C121.7,-9.822 131.107,-4.877 140.733,0.775C163.873,15.371 186.399,30.919 209.63,45.37C221.242,52.606 243.039,69.586 257.049,60.952C271.641,51.96 266.556,29.684 263.476,15.227C257.877,-5.389 246.786,-22.768 233.386,-39.109C257.432,-20.842 280.055,-0.922 303.564,18.001C314.838,27.105 332.974,45.067 347.538,38.995C370.166,29.56 353.246,-19.851 347.528,-36.481C327.902,-87.32 289.559,-126.366 244.532,-155.685C227.842,-166.062 210.352,-175.324 192.318,-183.149C193.345,-185.294 193.859,-186.366 194.886,-188.511C213.173,-180.576 230.909,-171.183 247.833,-160.66C298.333,-127.851 342.697,-81.529 360.62,-24.005C366.743,-4.354 382.588,50.563 356.255,61.329C343.567,66.517 329.391,54.784 319.759,46.636C300.237,30.121 282.722,11.096 263.759,-6.074C272.955,13.89 293.844,62.77 265.08,77.897ZM155.805,-106.895C165.409,-126.951 175.013,-147.008 184.617,-167.064C201.868,-159.179 218.369,-150.511 234.629,-140.757C262.451,-122.542 288.145,-100.182 304.449,-70.701C310.267,-58.837 323.358,-33.085 311.685,-24.443C301.225,-16.698 279.983,-31.976 269.255,-38.577C245.23,-53.361 221.662,-69.759 197.584,-84.918C184.257,-93.293 170.185,-100.518 155.805,-106.895M150.67,-96.171C151.697,-98.316 152.211,-99.388 153.238,-101.533C167.388,-95.005 180.891,-87.91 194.283,-79.943C222.393,-62.377 249.133,-42.854 276.312,-23.914C287.405,-16.341 311.398,4.184 324.938,-4.565C340.54,-14.647 325.072,-47.264 319.568,-59.974C301.311,-96.28 271.51,-123.736 237.93,-145.733C221.432,-155.63 204.688,-164.425 187.184,-172.426C188.211,-174.571 188.724,-175.643 189.751,-177.788C207.509,-169.671 224.494,-160.748 241.231,-150.709C279.823,-125.524 313.322,-92.929 332.33,-50.311C337.806,-36.577 355.339,4.983 336.285,15.372C320.308,24.084 293.517,-1.903 281.402,-11.058C251.906,-33.245 222.397,-55.524 190.982,-74.967C177.829,-82.792 164.568,-89.76 150.67,-96.171" style="fill:white;fill-rule:nonzero;"/>
            </g>
        </g>
    </g>
</svg>
