<?xml version="1.0" encoding="utf-8"?>
<!-- Generator: Adobe Illustrator 26.1.0, SVG Export Plug-In . SVG Version: 6.00 Build 0)  -->
<svg version="1.1" id="Livello_1" xmlns="http://www.w3.org/2000/svg" xmlns:xlink="http://www.w3.org/1999/xlink" x="0px" y="0px"
	 viewBox="0 0 1400 1400" style="enable-background:new 0 0 1400 1400;" xml:space="preserve">
<style type="text/css">
	.st0{fill:#2E2A2B;}
	.st1{fill:#F40129;}
	.st2{fill:#E9C122;}
	.st3{fill:#4DC039;}
	.st4{fill:#AAD308;}
	.st5{fill:#FFCC33;}
	.st6{fill:#E9C15E;}
	.st7{fill:#FF0007;}
</style>
<g>
	<path class="st0" d="M849.75,735.79c113.77-0.09,227.56-1.06,341.31-0.12c0.93,298.01-268.87,531.69-563.76,486.17
		c-213.93-27.82-390.08-208.53-416.12-421.92c-2.15-20.3-3.61-40.78-3.64-61.29c0-3.86,2.43-3.6,5.05-3.6
		c111.97,0.3,223.98-0.33,335.94,0.45c7.34,0.42,7.34,0.42,8.32,7.93c2.44,36.56,15.5,68.66,42.76,93.78
		c75.08,69.17,233.16,28.6,241.8-89.68C842,742.04,840.71,735.25,849.75,735.79z"/>
	<path class="st0" d="M1389.26,723.41c-0.54,89.36-17.13,178.93-52.01,261.36c-2.09,4.53-5.16,7.38-9.81,9.02
		c-41.57,14.64-83.11,29.37-124.67,44.05c-10.66,4.44-37.29,13.18-31.55-8.22c8.45-20.57,20.51-39.71,29.72-59.99
		c19.03-39.12,31.08-81.18,40.92-123.44c16.91-80.33,15.07-164.57-5.6-243.93c-25.27-107.42-86.87-205.52-168.36-279.44
		C693.48-10.86,104.72,286.56,147.2,784.89c4.47,50.35,14.92,99.93,33.2,147.12c12.66,33.38,29.53,64.62,46.48,95.91
		c5.74,8.92-3.32,19.66-13.29,16.2c-47.74-14.1-93.41-34.3-140.86-49.31c-9.82-3.04-13.19-11.1-15.9-19.15
		c-5.21-15.45-11.18-30.64-15.86-46.31C7.18,823.67,0.9,709.06,20.14,599.78c1.07-7.98,5.1-12.98,12.52-15.82
		c29.35-11.46,58.21-24.34,87.64-35.44c5.47-0.92,8.26-4.21,9.86-9.73c6.66-22.96,17.21-44.38,26.81-66.2
		c35.11-75.48,88.83-141.24,151.63-195.42C595.45,26.29,1063.08,118.1,1233.72,458.9c13.71,26.56,25.19,54.3,35.25,82.47
		c1.1,3.56,3.73,5.28,7.32,6.71c27.22,10.84,54.31,22.01,81.44,33.07c7.54,3.53,18.3,4.73,19.78,14.51
		C1385.89,637.7,1388.54,680.61,1389.26,723.41z"/>
	<path class="st1" d="M849.75,735.79c-9.04-0.54-7.75,6.25-8.33,11.72c-4.5,50.73-36.51,96.87-83.13,117.96
		C671.03,907.54,559,840.64,556.86,743.41c-0.98-7.51-0.98-7.51-8.33-7.93c21.48,0.05,42.94,0.1,64.41,0.14
		c3.29,113.4,167.13,114.49,172.31,1.65c-1.19-1.48-2.97-1.28-4.56-1.65C803.71,735.68,826.73,735.74,849.75,735.79z"/>
	<path class="st0" d="M780.69,735.62c1.59,0.37,3.38,0.16,4.56,1.65c-5.22,112.91-169.04,111.69-172.31-1.65
		c1.21-0.03,2.43-0.05,3.65-0.08c0,0,0.05,0.19,0.05,0.19l0.01-0.2C671.32,735.25,726.02,735.06,780.69,735.62z"/>
	<path class="st2" d="M556.12,347.39c1.05,114.17,0.06,228.78,0.54,343.09c0.21,8.71,0.21,8.69-8.79,8.65
		c-4.77-1.22-22.26,3.21-21.52-3.62c0.46-113.08,0.15-226.16,0.33-339.24c0-8.78-0.05-8.81,8.48-8.87
		C541.99,347.35,548.81,347.39,556.12,347.39z"/>
	<path class="st2" d="M707.76,698.91c-4.94-1.09-24.83,3.57-23.19-3.77c0.32-104.42,0.07-208.84,0.32-313.25
		c0.21-36.45,0.82-72.9-0.27-109.34c-0.1-4.02,1.09-5.79,5.35-5.64c6.28,0.22,12.58,0,18.87-0.04
		C707.89,410.58,710.16,555.26,707.76,698.91z"/>
	<path class="st2" d="M871.74,347.85c-0.05,112.85-0.14,225.68-0.16,338.53c0,12.95,0.16,12.94-12.86,12.87
		c-5.67-1.21-17.61,3.87-16.56-5.55c0.46-113.15,0.13-226.32,0.17-339.47c-0.01-5.03,1.29-6.78,6.44-6.48
		C856.2,348.17,863.66,347.85,871.74,347.85z"/>
	<path class="st2" d="M766.25,699.94c-9.56-1.15-19.03-0.63-28.38-0.89c-3.14-81.6,0.16-164.74-0.95-246.85
		c0-4.47,1.12-6.26,5.88-6.07c6.64,0.26,13.31-0.16,19.96-0.41c3.48-0.13,4.92,0.94,4.92,4.83
		C766.26,533.43,770.15,617.81,766.25,699.94z"/>
	<path class="st2" d="M661.38,699.34c-7.76-0.07-15.07-0.44-22.4,0.37c-6.92,0.76-8.17-0.45-7.98-7.58
		c1.62-60.13,0.53-120.26,0.48-180.4c-0.02-19.81-0.34-39.63-0.64-59.45c-0.07-4.41,1.14-6.45,5.77-6.41
		c8.1,0.08,16.21,0.51,24.77-0.52C661.38,530.39,661.38,614.73,661.38,699.34z"/>
	<path class="st3" d="M347.27,463.21c0.5,76.87-0.89,153.67,0.35,230.51c0.06,4.43-1.1,5.82-5.55,5.6c-6.98-0.34-14-0.2-20.99,0.11
		c-3.58,0.16-4.74-1.14-4.68-4.54c0.16-8.83,0.17-17.66,0.17-26.49c0.05-65.82,0.09-131.64,0.12-197.46c0-7.68-0.05-7.7,7.66-7.72
		C331.8,463.19,339.25,463.21,347.27,463.21z"/>
	<path class="st1" d="M1081.35,463.16c0,78.68,0,157.36,0,236.17c-9.97,0-19.69,0-29.25,0c-1.17-77.58-1.83-158.68,0.45-235.36
		c2.79-2.12,8.3-0.74,12.6-0.79C1070.42,463.11,1075.7,463.16,1081.35,463.16z"/>
	<path class="st4" d="M488.91,457.71c3.1-0.34,6.38,0.72,9.25,0.08c1.32-0.47,2.6-0.21,3.87,0.22
		c-2.22,40.41-2.93,81.02-1.34,121.45c0.55,39.19-1.59,78.47,1.98,117.5c-7.32,1.28-13.93,0.08-20.52,0.35
		c-6.57,0.27-6.58,0.07-6.58-6.36c1.83-77.46-3.55-156.59,1.89-233.28C481.38,457.34,485.06,459.05,488.91,457.71z"/>
	<path class="st2" d="M914.75,698.94c-4.35-0.19-21.44,3.22-20.35-3.51c0.01-76.98,0.08-153.96,0.12-230.94
		c0-6.48,0.14-6.68,6.75-6.71c4.65-0.02,9.31,0.21,13.96,0.33C917.76,537.59,917.38,619.37,914.75,698.94z"/>
	<path class="st3" d="M293.78,535.03c0,55.19,0,109.72,0,164.77c-8.9,0.04-17.82-0.85-26.73-0.07c-1.44,0.13-2.13-0.8-2.27-2.1
		c-0.53-52.1,0.22-104.24,0.01-156.35c0-4.57,1.06-6.66,6.17-6.35C278.24,535.36,285.57,535.03,293.78,535.03z"/>
	<path class="st2" d="M609.26,547.34c0,50.9,0,101.15,0,151.7c-9,0-18.08-0.02-27.16,0.02c-2.38,0.01-3.25-1.19-3.24-3.4
		c-0.07-47.13,0.5-94.27,0.68-141.4c0.04-6.52,0.23-6.8,6.62-6.89C593.64,547.26,601.12,547.34,609.26,547.34z"/>
	<path class="st1" d="M1132.39,534.42c3.52,0.2,0.53,3.7,1.76,5.59c-0.68,53.01,0.85,106.57-0.57,159.31l0.05-0.05
		c-1.1,0.42-2.12,1.55-3.38,0.34c-5.91-1.13-11.66-3.13-17.88-2.4c-2.54,0.3-4.75-0.74-5.58-3.79c-0.63-2.35-0.77-4.73-0.28-6.91
		c2.91-12.87,1.24-26.02,2.46-39.04c3.11-36.35-1.08-73.29-3.91-109.52c2-0.88,1.75,0.91,2.99,1.39
		C1106.95,532.6,1126.71,538.12,1132.39,534.42z"/>
	<path class="st2" d="M971.29,699.28c-6.98-0.01-13.97-0.08-20.95,0.01c-2.79,0.04-3.89-1.11-3.83-3.86
		c0.07-48.97,0.2-97.94,0.19-146.91c0-4.32,0.95-6.63,5.86-5.94c6.47,0.91,12.97,0.42,19.43-0.32c3.65-0.41,5.56,0.52,4.5,4.57
		c-1.96-6.66-6.06-2.32-9.95-2.13c2.23,3.89,1.99,7.72,1.99,11.52c-1.09,44.26,2.05,89.21-1.24,133.13
		C965.66,692.76,967.96,697.8,971.29,699.28z"/>
	<path class="st2" d="M810.98,698.89c-27.47,1.14-20.83,3.02-21.41-22.15c0.12-41.58-0.08-83.17,0.21-124.75
		c-1.4-8.41,17.58-3.13,23.16-4.28c-3.62,1.85-5.45,5.51-4.5,8.77C813.79,603.58,809.5,651.48,810.98,698.89z"/>
	<path class="st1" d="M1187.52,618.29c0.01,26.33-0.05,50.81,0.1,76.66c0.01,2.52-0.07,4.53-3.61,4.46
		c-8.8-0.18-17.6-0.06-26.21-0.06c-2.84-24.57,0.15-50.11-0.94-75.07c-0.03-4.81,1.29-6.39,6.22-6.11
		C1171,618.62,1178.96,618.29,1187.52,618.29z"/>
	<path class="st3" d="M240.55,618.41c2.48,24.67,0.21,50.44,1.26,75.49c0.04,4.02-0.88,5.64-5.24,5.4
		c-6.45-1.83-27.21,4.27-25.42-5.73c0.87-22.82,0.68-45.65,0.17-68.47c-0.11-5.04,1.49-6.91,6.49-6.75
		C225.43,618.59,233.06,618.41,240.55,618.41z"/>
	<path class="st2" d="M707.76,698.91c2.39-143.65,0.13-288.34,1.08-432.04c1.59-0.14,3.19-0.28,4.75-0.42
		c0.41,143.57,0.34,288.24,0.21,432.15C711.67,699.8,709.7,698.9,707.76,698.91z"/>
	<path class="st2" d="M914.75,698.94c2.63-79.56,3.01-161.34,0.48-240.82c1.37-0.22,2.75-0.44,4.13-0.66
		c0.51,0.49,0.95,0.39,1.33-0.16c2.75-0.45,3.81,0.5,3.8,3.49c-0.1,79.46-0.12,158.91-0.15,238.37
		C920.87,700.11,917.81,699.2,914.75,698.94z"/>
	<path class="st4" d="M375.46,618.54c6.51-0.82,13.03-0.73,19.55-0.28c4.39,3.11,2.07,7.5,1.11,10.72
		c-4.17,14.08-2.87,28.43-1.71,42.49c-0.68,4.23,5.67,27.7-0.66,25.83c-30.31,0.58-21.08,2.02-21.7-27.7
		c0.66-9.95,0.55-19.84,0.03-29.8C371.69,632.61,368.84,624.73,375.46,618.54z"/>
	<path class="st5" d="M1020.71,699.1c-5.88-1.2-22.98,4.19-21.46-5.03c0.17-14.46,0.16-28.93,0.15-43.39
		c1.95-34.71-9.78-33.48,21.47-32.23C1019.22,644.77,1021.06,672.37,1020.71,699.1z"/>
	<path class="st4" d="M477.47,457.67c-5.44,76.69-0.06,155.81-1.9,233.28c0,6.43,0.01,6.63,6.58,6.36
		c6.59-0.27,13.2,0.93,20.52-0.35c-3.56-39.02-1.42-78.3-1.98-117.5c-1.6-40.43-0.89-81.04,1.34-121.45
		c3.52-0.89,2.34,1.82,2.36,3.28c-0.38,79.44,0.8,158.88-0.03,238.29c-9.86-0.43-19.56,1-29.26-0.52
		c-3.38-78.03,0.01-157.93-1.05-236.58C474.06,460.3,473.09,456.96,477.47,457.67z"/>
	<path class="st4" d="M451.51,542.58c0.16,51.11-0.47,101.55,0.9,152.56c0.09,3.59-0.54,4.85-4.73,4.49
		c-6.26-0.54-12.62,0.22-18.94,0.33c-6.91,0.12-6.95,0.07-6.94-6.75c0.02-48.47,0.4-96.94-0.11-145.41
		c-0.05-3.84,1.04-5.4,5.06-5.29C434.7,542.74,442.66,542.58,451.51,542.58z M448.4,697.13c-3.45-46.44-4.6-91.95-0.6-138.14
		c3.71-21.87-0.76-13.24-25.29-14.88c2.93,50.22,0.12,100.76,1.02,151.16c-0.09,2.08,0.87,3.39,2.94,2.96
		C433.64,696.76,440.98,697.67,448.4,697.13z"/>
	<path class="st2" d="M971.29,699.28c-3.33-1.48-5.63-6.52-4-9.93c3.29-43.92,0.15-88.87,1.24-133.13c0-3.8,0.24-7.64-1.99-11.52
		c3.89-0.19,7.99-4.54,9.95,2.13c-0.2,50.64,0.71,101.35-0.07,151.97C974.72,698.89,972.97,699.51,971.29,699.28z"/>
	<path class="st6" d="M810.98,698.89c-1.47-47.41,2.81-95.31-2.53-142.4c-2.85-6.53,10.84-14.53,10.21-3.62
		c-0.07,47.13,0.11,94.27,0.23,141.4C818.9,699.66,818.92,699.66,810.98,698.89z"/>
	<path class="st7" d="M1132.39,534.42c-5.74,3.71-25.38-1.85-24.33,4.91c-1.24-0.48-0.99-2.27-2.99-1.39
		c2.84,36.23,7.02,73.17,3.91,109.52c-1.23,13.02,0.44,26.18-2.46,39.04c-0.49,2.18-0.36,4.57,0.28,6.91
		c0.82,3.06,3.04,4.09,5.58,3.79c6.22-0.73,11.98,1.27,17.88,2.4c-7.49,0.08-14.98,0.09-22.46,0.31c-6.46,0.2-3.2-8.3-3.97-12.3
		c-0.01-49.46,0.02-98.92-0.1-148.38c-0.01-3.65,0.9-5.01,4.73-4.88C1116.42,534.62,1124.41,534.43,1132.39,534.42z"/>
	<path class="st5" d="M1020.71,699.1c0.36-26.73-1.48-54.33,0.16-80.65c3.72-0.27,8.81-1.94,8.26,3.76
		c-0.38,25.63-0.1,51.26,0.01,76.87C1026.2,700.27,1023.44,699.06,1020.71,699.1z"/>
	<path class="st4" d="M375.46,618.54c-6.62,6.19-3.77,14.07-3.39,21.27c0.52,9.96,0.63,19.85-0.02,29.8
		c0.63,29.7-8.63,28.28,21.7,27.7c6.33,1.92-0.02-21.69,0.67-25.83c-1.16-14.06-2.46-28.42,1.71-42.49
		c0.96-3.22,3.28-7.61-1.11-10.72c7.15-3.15,2.55,18.14,3.74,22.31c0.23,17.95,0.49,35.9,0.91,53.84c0.08,3.53-0.66,5.11-4.61,4.95
		c-6.97-0.28-13.97-0.19-20.95,0.07c-4.01,0.15-5.33-1.59-5.19-5.32c0.88-23.93,0.73-47.88,0.58-71.82
		C369.45,617.59,372.18,617.73,375.46,618.54z"/>
	<path class="st2" d="M488.91,457.71c-2.65,0.61-5.31,0.95-7.94-0.11C483.64,456.09,486.29,456.36,488.91,457.71z"/>
	<path class="st2" d="M971.93,699.38c1.5-0.2,3-0.4,4.49-0.59C975.13,700.67,973.55,700.16,971.93,699.38z"/>
	<path class="st2" d="M1134.15,540.02c-0.45-1.13-0.56-2.25,0.1-3.33C1134.79,537.82,1134.77,538.92,1134.15,540.02z"/>
	<path class="st2" d="M498.16,457.79c-0.85,0.6-1.69,0.4-2.54,0C496.48,457.21,497.32,457.13,498.16,457.79z"/>
	<path class="st1" d="M616.65,735.53l-0.01,0.2C616.64,735.68,616.53,735.51,616.65,735.53z"/>
	<path class="st2" d="M1133.58,699.33l0.36,0.07C1133.89,699.39,1133.6,699.21,1133.58,699.33z"/>
	<path class="st2" d="M713.88,275.2c-0.01-0.32-0.02-0.65-0.03-0.97C713.99,274.61,714.41,274.95,713.88,275.2z"/>
	<path class="st2" d="M920.69,457.3c-0.38,0.55-0.82,0.65-1.33,0.16C919.8,457.4,920.24,457.35,920.69,457.3z"/>
	<path class="st4" d="M448.4,697.13c-7.43,0.54-14.76-0.37-21.94,1.1c-2.07,0.42-3.03-0.88-2.94-2.96
		c-0.9-50.41,1.91-100.94-1.02-151.16c24.55,1.64,28.99-6.98,25.29,14.88C443.8,605.19,444.95,650.68,448.4,697.13z"/>
</g>
</svg>
